HIERARCHY
ROOT Hips
{
	OFFSET -0.001795 -0.223333 0.028219
	CHANNELS 6 Xposition Yposition Zposition Zrotation Yrotation Xrotation 
	JOINT LeftUpLeg
	{
		OFFSET 0.069520 -0.091406 -0.006815
		CHANNELS 3 Zrotation Yrotation Xrotation
		JOINT LeftLeg
		{
			OFFSET 0.034277 -0.375199 -0.004496
			CHANNELS 3 Zrotation Yrotation Xrotation
			JOINT LeftFoot
			{
				OFFSET -0.013596 -0.397961 -0.043693
				CHANNELS 3 Zrotation Yrotation Xrotation
				JOINT LeftToe
				{
					OFFSET 0.026358 -0.055791 0.119288
					CHANNELS 3 Zrotation Yrotation Xrotation
					End Site
					{
						OFFSET 0.000000 0.000000 0.000000
					}
				}
			}
		}
	}
	JOINT RightUpLeg
	{
		OFFSET -0.067670 -0.090522 -0.004320
		CHANNELS 3 Zrotation Yrotation Xrotation
		JOINT RightLeg
		{
			OFFSET -0.038290 -0.382569 -0.008850
			CHANNELS 3 Zrotation Yrotation Xrotation
			JOINT RightFoot
			{
				OFFSET 0.015774 -0.398415 -0.042312
				CHANNELS 3 Zrotation Yrotation Xrotation
				JOINT RightToe
				{
					OFFSET -0.025372 -0.048144 0.123348
					CHANNELS 3 Zrotation Yrotation Xrotation
					End Site
					{
						OFFSET 0.000000 0.000000 0.000000
					}
				}
			}
		}
	}
	JOINT Spine
	{
		OFFSET -0.002533 0.108963 -0.026696
		CHANNELS 3 Zrotation Yrotation Xrotation
		JOINT Spine1
		{
			OFFSET 0.005487 0.135180 0.001092
			CHANNELS 3 Zrotation Yrotation Xrotation
			JOINT Spine2
			{
				OFFSET 0.001457 0.052922 0.025425
				CHANNELS 3 Zrotation Yrotation Xrotation
				JOINT Neck
				{
					OFFSET -0.002778 0.213870 -0.042857
					CHANNELS 3 Zrotation Yrotation Xrotation
					JOINT Head
					{
						OFFSET 0.005152 0.064970 0.051349
						CHANNELS 3 Zrotation Yrotation Xrotation
						End Site
						{
							OFFSET 0.000000 0.000000 0.000000
						}
					}
				}
				JOINT LeftShoulder
				{
					OFFSET 0.078845 0.121749 -0.034090
					CHANNELS 3 Zrotation Yrotation Xrotation
					JOINT LeftArm
					{
						OFFSET 0.090977 0.030469 -0.008868
						CHANNELS 3 Zrotation Yrotation Xrotation
						JOINT LeftForeArm
						{
							OFFSET 0.259612 -0.012772 -0.027456
							CHANNELS 3 Zrotation Yrotation Xrotation
							JOINT LeftHand
							{
								OFFSET 0.249234 0.008986 -0.001171
								CHANNELS 3 Zrotation Yrotation Xrotation
								End Site
								{
									OFFSET 0.000000 0.000000 0.000000
								}
							}
						}
					}
				}
				JOINT RightShoulder
				{
					OFFSET -0.081759 0.118833 -0.038615
					CHANNELS 3 Zrotation Yrotation Xrotation
					JOINT RightArm
					{
						OFFSET -0.096012 0.032551 -0.009143
						CHANNELS 3 Zrotation Yrotation Xrotation
						JOINT RightForeArm
						{
							OFFSET -0.253742 -0.013329 -0.021401
							CHANNELS 3 Zrotation Yrotation Xrotation
							JOINT RightHand
							{
								OFFSET -0.255298 0.007772 -0.005559
								CHANNELS 3 Zrotation Yrotation Xrotation
								End Site
								{
									OFFSET 0.000000 0.000000 0.000000
								}
							}
						}
					}
				}
			}
		}
	}
}
MOTION
Frames: 13
Frame Time: 0.050000
-0.843384 0.954290 0.472580 -2.202240 76.855433 -7.164644 -4.157578 -0.094037 -3.672616 -1.294376 -2.684682 16.308970 6.726873 13.685797 11.447893 0.000000 0.000000 0.000000 -4.498559 -3.251444 -14.848787 -9.635651 -12.807906 43.137502 3.797529 6.283814 2.311785 0.000000 0.000000 0.000000 2.046206 -5.036939 23.681790 -3.855275 2.965221 -20.526651 2.561895 22.324012 30.232446 14.229124 5.359497 -31.758421 0.000000 0.000000 0.000000 -13.106694 -27.598290 -8.735466 -49.670788 -9.902589 0.735298 -120.152011 -69.002494 71.547511 0.000000 0.000000 0.000000 29.839141 2.119893 26.878238 56.204655 36.259166 5.443257 98.720971 76.370734 110.676176 0.000000 0.000000 0.000000 
-0.874329 0.955474 0.481099 -0.767321 77.104279 -4.221496 -3.527828 -0.434548 -7.025500 -0.697530 -2.854691 16.624121 4.668222 11.805892 10.679129 0.000000 0.000000 0.000000 -5.546590 -2.904713 -11.255312 -8.453194 -11.354097 39.017402 3.009958 4.854165 4.174056 0.000000 0.000000 0.000000 2.650398 -4.915972 22.987748 -3.605115 2.960151 -18.264593 1.673410 22.933230 27.029660 13.963099 4.682762 -29.291182 0.000000 0.000000 0.000000 -12.872404 -26.621431 -8.514649 -49.671556 -8.660350 0.070643 -122.073699 -69.999358 75.415345 0.000000 0.000000 0.000000 30.575872 2.385503 27.538978 54.239362 34.984090 3.959379 98.011335 76.219228 108.334194 0.000000 0.000000 0.000000 
-0.904162 0.953536 0.490609 6.114681 78.806539 3.221798 -4.667513 -0.782811 -9.171855 0.851116 -2.911133 16.041711 2.918541 10.045226 10.361735 0.000000 0.000000 0.000000 -6.290827 -2.655405 -6.759673 -6.116543 -9.335794 32.199514 3.000382 4.659149 5.681833 0.000000 0.000000 0.000000 2.980725 -5.190094 23.249758 -4.521784 2.989051 -18.406264 2.417364 22.931761 26.191721 13.093614 4.804987 -27.597420 0.000000 0.000000 0.000000 -12.308382 -25.718362 -8.805575 -49.824136 -8.180012 -0.453703 -120.193727 -69.493478 72.772003 0.000000 0.000000 0.000000 30.656366 1.365757 27.236611 53.101412 33.826361 2.989106 91.820297 76.626659 101.400718 0.000000 0.000000 0.000000 
-0.934251 0.949429 0.501051 11.492864 79.805653 8.769772 -5.527837 -1.402510 -11.804210 2.447624 -3.448894 16.958103 2.229041 9.834183 10.771521 0.000000 0.000000 0.000000 -6.429348 -2.497406 -2.968903 -1.765407 -7.190388 23.495392 1.097989 -0.368504 2.772449 0.000000 0.000000 0.000000 3.950842 -6.339357 24.900142 -5.351092 2.975656 -19.678179 1.709260 25.521137 25.631801 14.308779 3.990368 -26.593974 0.000000 0.000000 0.000000 -11.612697 -25.754226 -9.135476 -49.641555 -8.097038 -0.659643 -115.704036 -69.074690 66.996202 0.000000 0.000000 0.000000 32.569564 -1.080814 27.929080 51.046038 33.447286 1.366662 87.007016 76.243665 95.005591 0.000000 0.000000 0.000000 
-0.964892 0.944946 0.511423 16.872043 80.875824 14.208132 -6.305876 -2.212326 -14.409660 3.887535 -4.325559 18.636886 2.094289 9.581966 10.286533 0.000000 0.000000 0.000000 -5.923833 -2.354603 -1.568346 0.871092 -6.239078 18.446071 -0.242386 -5.398605 -0.438479 0.000000 0.000000 0.000000 4.829844 -7.631415 26.698600 -5.338948 2.953436 -20.605555 1.910330 26.685289 26.234245 13.126528 4.960108 -27.625036 0.000000 0.000000 0.000000 -12.667510 -25.341078 -10.410095 -48.291184 -6.604063 -0.680552 -110.530270 -68.218233 62.311868 0.000000 0.000000 0.000000 33.656821 -2.985635 27.530293 49.186626 31.724472 -0.340585 64.468398 74.308544 68.688973 0.000000 0.000000 0.000000 
-0.994572 0.941639 0.520770 19.173151 82.376307 16.684948 -5.458372 -3.400342 -18.160420 3.320233 -5.748313 22.165972 1.867499 9.861809 10.568817 0.000000 0.000000 0.000000 -5.528943 -2.330065 -2.114547 2.384234 -6.519778 16.810086 -0.124666 -5.827803 -1.111635 0.000000 0.000000 0.000000 5.310951 -9.058414 28.465579 -5.392224 2.958429 -19.871073 2.421428 27.085339 24.793979 11.637639 5.133800 -25.816567 0.000000 0.000000 0.000000 -15.458624 -24.379024 -13.385093 -46.817999 -0.670920 -1.327036 -109.605206 -64.019025 58.976451 0.000000 0.000000 0.000000 32.228667 -1.972692 27.148139 48.870849 27.775247 -1.357606 48.327818 73.167586 51.410811 0.000000 0.000000 0.000000 
-1.020892 0.941992 0.528063 25.449654 82.573146 23.877532 -5.053455 -4.510073 -20.970590 0.686352 -6.678833 25.388675 4.621728 11.051120 7.893018 0.000000 0.000000 0.000000 -6.015490 -2.637225 -4.590223 2.689135 -7.073250 17.616050 0.550756 -5.133309 -2.743759 0.000000 0.000000 0.000000 5.608787 -9.574068 28.969081 -5.705704 2.970195 -19.253225 2.705431 28.220265 24.973532 10.735424 5.832936 -26.808267 0.000000 0.000000 0.000000 -17.585063 -25.293282 -15.519535 -46.898414 3.955778 -1.942387 -108.343996 -60.328596 54.277253 0.000000 0.000000 0.000000 32.669004 -3.313323 26.771252 47.867825 25.595982 -2.601870 39.047373 70.171539 40.303909 0.000000 0.000000 0.000000 
-1.043559 0.942473 0.533886 36.086501 83.060836 33.977269 -6.231884 -5.106064 -21.601498 -6.340213 -9.525015 34.279475 6.725729 17.133309 12.388726 0.000000 0.000000 0.000000 -6.313673 -2.868567 -4.749316 3.047938 -7.099662 16.959486 -0.217236 -6.324086 -1.719509 0.000000 0.000000 0.000000 5.437772 -10.441228 30.292160 -5.350259 2.945222 -18.763604 2.651849 28.841543 26.316018 11.653953 5.496659 -26.533170 0.000000 0.000000 0.000000 -18.288740 -25.504240 -16.717050 -47.163733 7.029341 -2.749444 -110.568395 -58.810730 55.010247 0.000000 0.000000 0.000000 30.847014 -3.976966 25.050073 49.139916 25.092875 -1.646160 31.572507 66.116373 31.783650 0.000000 0.000000 0.000000 
-1.064136 0.944323 0.539147 35.426052 83.570614 33.256052 -7.072775 -4.865574 -20.682929 -12.655778 -10.996027 40.467647 9.500364 22.740921 20.465867 0.000000 0.000000 0.000000 -5.612463 -2.764111 -6.242694 2.775070 -6.821307 16.656678 -1.049245 -4.990177 2.919003 0.000000 0.000000 0.000000 4.808180 -11.612194 32.353141 -6.944805 3.055052 -19.268352 4.848347 30.063170 27.382244 11.781579 5.056067 -24.654210 0.000000 0.000000 0.000000 -19.490759 -25.182970 -18.240306 -47.111050 9.408047 -3.133118 -108.585421 -56.920908 51.854975 0.000000 0.000000 0.000000 30.346623 -3.004680 25.386103 48.176494 26.481543 -1.008856 16.378515 62.323447 18.131165 0.000000 0.000000 0.000000 
-1.083681 0.946113 0.544021 37.789770 84.326801 36.878500 -8.388790 -4.828297 -19.957786 -8.491097 -10.796210 37.453726 8.883403 22.388465 22.344230 0.000000 0.000000 0.000000 -4.919831 -3.017740 -9.592164 1.176802 -6.745893 18.310639 0.881793 -1.137012 3.091229 0.000000 0.000000 0.000000 5.209854 -11.290774 31.494400 -8.348711 3.055516 -18.724483 5.901582 29.232083 28.818864 10.779901 6.078418 -26.109025 0.000000 0.000000 0.000000 -20.564942 -24.695743 -19.666478 -45.237856 9.658565 -2.481765 -107.058109 -58.747607 55.002486 0.000000 0.000000 0.000000 30.720675 -2.850190 25.898313 47.139540 28.326904 -0.599171 4.481142 58.663937 8.961281 0.000000 0.000000 0.000000 
-1.102583 0.947841 0.548932 38.179309 85.048565 37.652347 -8.500212 -3.961163 -18.113425 -3.887915 -9.511013 32.541537 7.975669 19.195253 16.798027 0.000000 0.000000 0.000000 -5.807301 -3.910447 -11.607988 1.357495 -7.943682 20.507573 3.947576 3.464552 1.210553 0.000000 0.000000 0.000000 2.957799 -10.905730 32.465229 -3.856845 2.874302 -18.710524 3.674380 30.396982 29.697271 12.940955 4.919448 -25.662613 0.000000 0.000000 0.000000 -20.301185 -24.631318 -20.511602 -44.011130 10.394141 -2.248212 -106.472282 -62.727590 60.201112 0.000000 0.000000 0.000000 31.623280 -2.807579 27.718011 46.252043 31.462773 -0.171081 -4.669132 54.219572 2.648475 0.000000 0.000000 0.000000 
-1.120430 0.947867 0.554291 32.903434 84.315106 32.896156 -7.380646 -3.266419 -17.103447 -2.790188 -7.645761 28.544175 7.297634 16.484629 13.098841 0.000000 0.000000 0.000000 -7.094870 -5.289006 -14.756102 -2.016810 -9.390846 27.223152 7.534957 9.337646 -1.539045 0.000000 0.000000 0.000000 2.442458 -10.500516 32.364188 -4.307400 2.917673 -17.628762 3.914905 29.882946 28.849130 11.420480 5.240570 -24.839137 0.000000 0.000000 0.000000 -20.132541 -22.788741 -20.363780 -44.449610 8.808838 -2.088644 -104.076417 -65.997366 62.052439 0.000000 0.000000 0.000000 29.638112 -1.174845 26.770869 50.155814 31.926406 1.982125 -6.542806 49.687236 1.403462 0.000000 0.000000 0.000000 
-1.136801 0.947474 0.561329 34.250417 84.557817 34.761788 -6.652290 -3.479397 -17.890270 -1.874058 -6.778437 26.202238 6.489848 16.288779 14.404607 0.000000 0.000000 0.000000 -7.824098 -6.433340 -16.692882 -7.194125 -10.618067 34.307916 6.019310 7.341070 -3.138389 0.000000 0.000000 0.000000 1.156088 -10.443493 33.045033 -3.825702 2.856062 -18.025893 3.560299 29.840674 28.765266 11.560753 4.786307 -23.825221 0.000000 0.000000 0.000000 -19.863153 -21.789429 -20.913221 -44.008706 7.089185 -1.401096 -99.237684 -69.232518 61.570456 0.000000 0.000000 0.000000 29.779927 -0.130718 28.228361 51.691911 34.858336 3.421342 -9.240240 45.136993 -0.315832 0.000000 0.000000 0.000000 
